<mxfile host="app.diagrams.net" agent="Mozilla/5.0 (X11; Linux x86_64; rv:136.0) Gecko/20100101 Firefox/136.0" version="27.1.6">
  <diagram id="O7HJfOl3aAP-LGKxII7N" name="PÃ¡gina-1">
    <mxGraphModel dx="868" dy="471" grid="1" gridSize="10" guides="1" tooltips="1" connect="1" arrows="1" fold="1" page="1" pageScale="1" pageWidth="827" pageHeight="1169" math="0" shadow="0">
      <root>
        <mxCell id="0" />
        <mxCell id="1" parent="0" />
        <mxCell id="s-4y7A2X8yGY4CUi8by4-1" value="Cliente" style="swimlane;childLayout=stackLayout;horizontal=1;startSize=50;horizontalStack=0;rounded=1;fontSize=14;fontStyle=0;strokeWidth=2;resizeParent=0;resizeLast=1;shadow=0;dashed=0;align=center;arcSize=4;whiteSpace=wrap;html=1;" vertex="1" parent="1">
          <mxGeometry x="40" y="400" width="231" height="280" as="geometry" />
        </mxCell>
        <mxCell id="s-4y7A2X8yGY4CUi8by4-2" value="&lt;div&gt;- nome : String&lt;/div&gt;&lt;div&gt;- tipo_de_carne : String&lt;/div&gt;&lt;div&gt;- unidades: int&lt;/div&gt;&lt;div&gt;- peso : Double&lt;/div&gt;&lt;div&gt;+ adicionar_exportacao():boolean&lt;/div&gt;&lt;div&gt;&lt;br&gt;&lt;/div&gt;" style="align=left;strokeColor=none;fillColor=none;spacingLeft=4;spacingRight=4;fontSize=12;verticalAlign=top;resizable=0;rotatable=0;part=1;html=1;whiteSpace=wrap;" vertex="1" parent="s-4y7A2X8yGY4CUi8by4-1">
          <mxGeometry y="50" width="231" height="230" as="geometry" />
        </mxCell>
        <mxCell id="s-4y7A2X8yGY4CUi8by4-3" value="Adiministrador" style="swimlane;childLayout=stackLayout;horizontal=1;startSize=50;horizontalStack=0;rounded=1;fontSize=14;fontStyle=0;strokeWidth=2;resizeParent=0;resizeLast=1;shadow=0;dashed=0;align=center;arcSize=4;whiteSpace=wrap;html=1;" vertex="1" parent="1">
          <mxGeometry x="40" y="820" width="231" height="270" as="geometry" />
        </mxCell>
        <mxCell id="s-4y7A2X8yGY4CUi8by4-4" value="&lt;div&gt;- id : int&lt;/div&gt;&lt;div&gt;- nome_usuario : String&lt;/div&gt;&lt;div&gt;- senha : String&lt;/div&gt;&lt;div&gt;+ adicionar_cliente():boolean&lt;/div&gt;&lt;div&gt;+ listar_exportacao()&lt;/div&gt;&lt;div&gt;+ editar_exportacao(id)&lt;/div&gt;" style="align=left;strokeColor=none;fillColor=none;spacingLeft=4;spacingRight=4;fontSize=12;verticalAlign=top;resizable=0;rotatable=0;part=1;html=1;whiteSpace=wrap;" vertex="1" parent="s-4y7A2X8yGY4CUi8by4-3">
          <mxGeometry y="50" width="231" height="220" as="geometry" />
        </mxCell>
        <mxCell id="s-4y7A2X8yGY4CUi8by4-5" value="Exportacao" style="swimlane;childLayout=stackLayout;horizontal=1;startSize=50;horizontalStack=0;rounded=1;fontSize=14;fontStyle=0;strokeWidth=2;resizeParent=0;resizeLast=1;shadow=0;dashed=0;align=center;arcSize=4;whiteSpace=wrap;html=1;" vertex="1" parent="1">
          <mxGeometry x="480" y="400" width="230" height="270" as="geometry" />
        </mxCell>
        <mxCell id="s-4y7A2X8yGY4CUi8by4-6" value="&lt;div&gt;~ id : int&lt;/div&gt;&lt;div&gt;- motorista : String&lt;/div&gt;&lt;div&gt;- placa : String&lt;/div&gt;&lt;div&gt;- temperatura : double&lt;/div&gt;&lt;div&gt;- origem : String&lt;/div&gt;&lt;div&gt;- destino : String&lt;/div&gt;&lt;div&gt;- data_da_importacao : Date&lt;/div&gt;&lt;div&gt;- data_da_exportacao : Date&lt;/div&gt;&lt;div&gt;- temperatura : double&lt;/div&gt;&lt;div&gt;- status_concluido : boolean&lt;/div&gt;&lt;div&gt;- camera : [ ]&lt;/div&gt;&lt;div&gt;- cliente : Cliente&lt;/div&gt;&lt;div&gt;&lt;br&gt;&lt;/div&gt;&lt;div&gt;&lt;br&gt;&lt;/div&gt;" style="align=left;strokeColor=none;fillColor=none;spacingLeft=4;spacingRight=4;fontSize=12;verticalAlign=top;resizable=0;rotatable=0;part=1;html=1;whiteSpace=wrap;" vertex="1" parent="s-4y7A2X8yGY4CUi8by4-5">
          <mxGeometry y="50" width="230" height="220" as="geometry" />
        </mxCell>
        <mxCell id="s-4y7A2X8yGY4CUi8by4-7" value="" style="edgeStyle=entityRelationEdgeStyle;fontSize=12;html=1;endArrow=ERoneToMany;rounded=0;exitX=1;exitY=0.082;exitDx=0;exitDy=0;exitPerimeter=0;entryX=-0.017;entryY=0.085;entryDx=0;entryDy=0;entryPerimeter=0;" edge="1" parent="1" source="s-4y7A2X8yGY4CUi8by4-1" target="s-4y7A2X8yGY4CUi8by4-5">
          <mxGeometry width="100" height="100" relative="1" as="geometry">
            <mxPoint x="360" y="650" as="sourcePoint" />
            <mxPoint x="460" y="550" as="targetPoint" />
          </mxGeometry>
        </mxCell>
        <mxCell id="s-4y7A2X8yGY4CUi8by4-8" value="" style="curved=1;endArrow=classic;html=1;rounded=0;entryX=0.5;entryY=1;entryDx=0;entryDy=0;exitX=0.476;exitY=0;exitDx=0;exitDy=0;exitPerimeter=0;" edge="1" parent="1" source="s-4y7A2X8yGY4CUi8by4-3" target="s-4y7A2X8yGY4CUi8by4-1">
          <mxGeometry width="50" height="50" relative="1" as="geometry">
            <mxPoint x="130.5" y="780" as="sourcePoint" />
            <mxPoint x="180.5" y="730" as="targetPoint" />
            <Array as="points">
              <mxPoint x="180.5" y="780" />
              <mxPoint x="130.5" y="730" />
            </Array>
          </mxGeometry>
        </mxCell>
      </root>
    </mxGraphModel>
  </diagram>
</mxfile>
